<?xml version="1.0" encoding="UTF-8" standalone="no"?>
<!DOCTYPE svg  PUBLIC '-//W3C//DTD SVG 1.1//EN'  'http://www.w3.org/Graphics/SVG/1.1/DTD/svg11.dtd'>
<svg id="Camada_1" xmlns="http://www.w3.org/2000/svg" xml:space="preserve" viewBox="0 0 150 150" height="150px" width="150px" version="1.1" y="0px" x="0px" xmlns:xlink="http://www.w3.org/1999/xlink" enable-background="new 0 0 150 150">
<path d="m105.3 91.2c3.4 1.9 20.4 12 20.4 12s4 3.3 7.4-9.4c3.3-12.6 4.2-27.7-1.6-43-0.8-2-2.7-7.7-6.9-4.9-4.2 2.9-21.1 13.8-21.1 13.8s-3.3 2-2.6 5.5c0.6 3.5 1.9 10.7 0.9 16.1-1 5-2.2 6.7 3.5 9.9z" fill="#8FC1AD"/>
<path d="m103.6 54.9c3.2-2.1 20-12.7 20-12.7s4.7-2-3.8-11.6c-8.4-9.5-20.1-18-35.3-20.4-2-0.3-7.6-1.5-7.4 3.9 0.2 5.3 0.3 26.5 0.3 26.5s0 4 3.1 5.2c3.1 1.2 9.5 3.7 13.4 7.4 3.5 3.4 4.3 5.4 9.7 1.7z" fill="#3F2920"/>
<path d="m77 112c0.2 4.1 0.8 25 0.8 25s-0.6 5.3 11.3 2c11.8-3.3 24.4-10.3 33.6-23.4 1.2-1.7 4.8-6.4 0.4-8.8s-21.9-12.4-21.9-12.4-3.3-2-5.7 0.4c-2.5 2.3-7.6 7.2-12.5 9-4.4 1.5-6.4 1.3-6 8.2z" fill="#E5BA43"/>
<path d="m46.4 95.2c-3.2 2.2-20 12.9-20 12.9s-4.7 2 3.9 11.6c8.4 9.4 20.2 17.9 35.4 20.2 2 0.3 7.6 1.4 7.4-3.9s-0.5-26.5-0.5-26.5 0-4-3.1-5.2c-3.1-1.2-9.5-3.6-13.4-7.3-3.5-3.5-4.2-5.5-9.7-1.8z" fill="#CA5842"/>
<path d="m44.7 58.4c-3.4-1.9-20.4-12-20.4-12s-4-3.3-7.4 9.4c-3.3 12.6-4.2 27.7 1.6 43 0.8 2 2.7 7.7 6.9 4.9 4.2-2.9 21.1-13.8 21.1-13.8s3.3-2 2.6-5.5c-0.6-3.5-1.9-10.7-0.9-16.1 1-5 2.2-6.7-3.5-9.9z" fill="#6C9686"/>
			<path d="m110.3 66c0 0.8 0.5 1.6 1.2 1.9v-0.2h0.3v-0.5h-0.3c-0.3 0-0.5-0.3-0.5-0.6s0.2-0.6 0.5-0.6h0.7v-2c-1 0-1.9 0.9-1.9 2z" fill="none"/>
			<path d="m112.9 66.1c0.3 0 0.5 0.3 0.5 0.6s-0.2 0.6-0.5 0.6h-0.3v0.5h0.3v0.2c0.7-0.3 1.2-1 1.2-1.9 0-1.1-0.8-2-1.9-2v2.1h0.7z" fill="none"/>
				<rect y="66.5" x="109.2" height="15.5" width="21.1" fill="#D88A2E"/>
				<rect y="65.1" x="111.9" height="2.8" width="5.3" fill="#D88A2E"/>
				<ellipse cy="66.5" cx="117.1" rx="1.3" ry="1.4" fill="#D88A2E"/>
				<ellipse cy="66.5" cx="111.9" rx="1.3" ry="1.4" fill="#D88A2E"/>
					<polygon points="129.9 82.3 110.3 82.6 110.1 68.1 129.8 67.8" fill="#C6BBAB"/>
					<polygon points="129.5 82.1 110.7 82 110.7 67.5 129.5 67.5" fill="#D6D9DB"/>
					<polygon points="129.2 83.2 110.4 83.3 110.4 68.7 129.1 68.7" fill="#EDECED"/>
				<polygon points="109.2 83.4 108.5 70 131.1 70 130.3 83.4" fill="#E3B22A"/>
				<rect y="66.5" x="109.2" height="16.9" width="21.1" fill="none"/>
			<ellipse cy="76.7" cx="119.8" rx="4.9" ry="5.2" fill="#EDECED"/>
				<polygon points="122.1 78.1 121.4 78.1 121.4 77.1 118.1 77.1 118.1 78.1 117.5 78.1 117.5 76.4 122.1 76.4" fill="#263A55"/>
				<rect y="75.3" x="119.4" height="2.8" width=".7" fill="#263A55"/>
				<ellipse cy="74.6" cx="119.8" rx=".7" ry=".7" fill="#CD5B4C"/>
				<ellipse cy="78.8" cx="117.8" rx=".7" ry=".7" fill="#CD5B4C"/>
				<ellipse cy="78.8" cx="119.8" rx=".7" ry=".7" fill="#CD5B4C"/>
				<ellipse cy="78.8" cx="121.7" rx=".7" ry=".7" fill="#CD5B4C"/>
<ellipse cy="75" cx="74.8" rx="23.1" ry="24.8" fill="#E2BC3F"/>
<path d="m72.9 38.8c-0.1-4.1 0-25 0-25s0.8-5.3-11.2-2.4c-11.9 2.9-24.7 9.4-34.4 22.2-1.3 1.7-5 6.3-0.7 8.8 4.3 2.6 21.4 13.2 21.4 13.2s3.2 2.1 5.8-0.2c2.5-2.3 7.8-6.9 12.8-8.6 4.5-1.4 6.4-1.1 6.3-8z" fill="#E09C43"/>
				<rect y="84.4" x="28.7" height="3" width="2.8" fill="#263A55"/>
				<path d="m30.1 79v-18.6c-4 0-7.2 3.2-7.2 7.7 0 4.6 3.7 7.5 3.7 10.9h1.1 2.4z" fill="#E3B22A"/>
				<path d="m30.1 60.4v18.6h2.5 1.1c0-3.3 3.7-6.3 3.7-10.9-0.1-4.5-3.3-7.7-7.3-7.7z" fill="#D88A2E"/>
				<path d="m30.1 86.7h2.5c0.6 0 1.1-0.5 1.1-1.2v-5.3h-3.6v6.5z" fill="#EDECED"/>
				<path d="m26.5 80.2v5.3c0 0.7 0.5 1.2 1.1 1.2h2.5v-6.5h-3.6z" fill="#EDECED"/>
				<path d="m27.6 79h-1.1v1.2h3.6v-1.2h-2.5z" fill="#263A55"/>
				<path d="m32.5 79h-2.5v1.2h3.6v-1.2h-1.1z" fill="#263A55"/>
<path d="m86.1 82.8c-0.3-0.3-0.6-0.6-1-0.8-1.9-1-3.8-1.9-5.7-2.7-0.1-0.1-0.3-0.2-0.4-0.3-0.2-0.4-0.3-0.8-0.4-1.2-0.1-0.3-0.1-0.5-0.4-0.6-0.1 0-0.1-0.2-0.1-0.3 0-0.9-0.2-1.9 0.5-2.7v-0.1c0.3-0.8 0.4-1.7 0.9-2.5v-0.1c0.1-0.6 0.1-1.1 0.2-1.7 0-0.1-0.1-0.2-0.1-0.2-0.3-0.1-0.2-0.3-0.2-0.6v-2.4c0-0.6-0.2-1.2-0.6-1.7-0.3-0.3-0.6-0.5-0.8-0.8 0 0-0.7-0.6-0.3-1.2 0.2-0.3 0.6-0.3 0.6-0.3s-0.6-0.6-2.5-0.1h-0.1c-0.2 0-0.3 0.1-0.5 0.1-1.1 0.3-2.2 0.7-3.1 1.4-0.6 0.5-1.1 1.2-1.2 2.1v1.4 1.3c0 0.1-0.1 0.3-0.1 0.4-0.3 0.1-0.3 0.3-0.3 0.6v0.5c0.1 0.5 0.2 1 0.3 1.4s0.3 0.7 0.3 1c0.1 0.7 0.3 1.3 0.8 1.9 0.1 0.1 0.1 0.2 0.1 0.4 0 0.5-0.1 1.1-0.2 1.6 0 0.1-0.1 0.3-0.2 0.3-0.3 0.1-0.4 0.4-0.5 0.6-0.1 0.4-0.2 0.7-0.4 1.1 0 0.1-0.1 0.2-0.3 0.3-0.6 0.3-1.2 0.5-1.8 0.8s-1.3 0.6-1.9 0.9c-0.7 0.3-1.3 0.7-1.9 1.1-0.4 0.2-0.7 0.5-1 0.7l-0.8 4.5c3.7 0 5.9 2.5 9.4 3.4 0 0 2.5 0.8 4.5 0.1 0.3-0.1 0.7-0.3 1-0.4 3.1-1.1 7-3.2 9.1-3.2l-0.9-4zm-13.6 5.4v-0.2 0.2z" fill="#3F2920"/>
<g id="screen">
		<path d="m95.5 122.3c-0.2 0.9-0.5 1.9-0.7 2.8h6.4c-0.2-0.9-0.5-1.9-0.7-2.8h-5z" fill="#939292"/>
		<path d="m98 125.1h3.3c-0.2-0.9-0.5-1.9-0.7-2.8h-2.6v2.8z" fill="#969A9D"/>
		<path d="m101.6 125.1h-7.2c-0.2 0-0.3 0.2-0.3 0.4v0.1h7.9v-0.1c-0.1-0.2-0.2-0.4-0.4-0.4z" fill="#fff"/>
		<path d="m87.1 121.2v1.6c0 0.3 0.2 0.5 0.5 0.5h20.7c0.3 0 0.5-0.2 0.5-0.5v-1.6h-21.7z" fill="#fff"/>
		<path d="m108.9 121.2v-13.1c0-0.3-0.2-0.5-0.5-0.5h-20.7c-0.3 0-0.5 0.2-0.5 0.5v13.1h21.7z" fill="#0F303F"/>
		<rect y="108.4" x="88" height="11.9" width="20" fill="#6D8B96"/>
</g>
	<path d="m58.2 107.1l-10.5 0.8c-0.3 0-0.5 0.3-0.4 0.5l1.4 17.5c0 0.3 0.3 0.5 0.5 0.4l10.5-0.8c0.3 0 0.5-0.3 0.4-0.5l-1.4-17.5c0-0.3-0.2-0.5-0.5-0.4zm-0.6 1.9l1.1 14.3c0 0.3-0.2 0.5-0.4 0.5l-8 0.6c-0.2 0-0.4-0.1-0.5-0.3l-0.4 0.8 0.4-0.8c0-0.1 0-0.1-0.1-0.2l-1.1-14.3c0-0.3 0.2-0.5 0.4-0.5l8-0.6c0.2 0 0.4 0.1 0.5 0.3l0.5-0.8-0.4 0.8v0.2z" fill="#333"/>
	<path d="m50.2 124.4l8-0.6c0.3 0 0.5-0.3 0.4-0.5l-1-14.3c0-0.1 0-0.1-0.1-0.2l-7.8 15.3c0.2 0.2 0.3 0.3 0.5 0.3z" fill="#64B5BE"/>
	<path opacity=".2" d="m50.2 124.4l8-0.6c0.3 0 0.5-0.3 0.4-0.5l-1-14.3c0-0.1 0-0.1-0.1-0.2l-7.8 15.3c0.2 0.2 0.3 0.3 0.5 0.3z" fill="#fff"/>
	<path d="m57.1 108.5l-8 0.6c-0.3 0-0.5 0.3-0.4 0.5l1.1 14.3c0 0.1 0 0.1 0.1 0.2l7.8-15.3c-0.2-0.2-0.4-0.3-0.6-0.3z" fill="#64B5BE"/>
	<path fill="#fff" clip-rule="evenodd" d="m98 25.5c4.5 0 8.2 3.2 8.2 7.1 0 2.3-1.3 4.4-3.4 5.7l1.2 2.9-2.8-2.1c-1 0.4-2 0.5-3.2 0.5-4.5 0-8.2-3.2-8.2-7.1-0.1-3.9 3.6-7 8.2-7z" fill-rule="evenodd"/>
	<text font-size="8.4215" font-family="&apos;ArialMT&apos;" transform="translate(93.606 35.043)" fill="#6C9686">@</text>
	<path d="m50.7 37.7c-1.5 0.5-2.5 1.4-2.6 1.5-0.5 0.5-0.5 1.2-0.1 1.7s1.2 0.5 1.7 0.1c0.2-0.2 1.2-1.1 2.6-1.1v-2.4c-0.5 0-1 0.1-1.6 0.2z" fill="#8FC1AD"/>
	<path d="m49.7 33.4c-2.6 0.8-4.4 2.4-4.5 2.5-0.5 0.5-0.5 1.2-0.1 1.7 0.2 0.3 0.6 0.4 0.9 0.4s0.6-0.1 0.8-0.3c0.1-0.1 2.4-2.2 5.4-2.3v-2.4c-0.8 0-1.7 0.1-2.5 0.4z" fill="#8FC1AD"/>
	<path d="m48.7 29.4c-3.7 1.2-6.2 3.4-6.3 3.5-0.5 0.5-0.5 1.2-0.1 1.7 0.5 0.5 1.2 0.5 1.7 0.1 0.2-0.2 3.8-3.3 8.3-3.5v-2.4c-1.3 0-2.5 0.3-3.6 0.6z" fill="#8FC1AD"/>
	<path d="m54.8 41c0.2 0.2 0.6 0.4 0.9 0.4s0.6-0.1 0.9-0.4c0.5-0.5 0.5-1.2 0-1.7-1.2-1.2-2.7-1.8-4.3-1.8v2.4c0.8 0 1.7 0.2 2.5 1.1z" fill="#8FC1AD"/>
	<path d="m57.7 37.6c0.5 0.5 1.3 0.5 1.7 0 0.5-0.5 0.5-1.2 0-1.7-2.4-2.4-4.9-3.1-7.1-3v2.4c1.7 0 3.5 0.5 5.4 2.3z" fill="#8FC1AD"/>
	<path d="m60.6 34.7c0.2 0.2 0.6 0.4 0.9 0.4s0.6-0.1 0.9-0.4c0.5-0.5 0.5-1.3 0-1.7-3.4-3.4-7-4.3-10-4.2v2.4c2.5-0.1 5.4 0.7 8.2 3.5z" fill="#8FC1AD"/>
</svg>
