<?xml version="1.0" encoding="UTF-8" standalone="no"?>
<svg xmlns="http://www.w3.org/2000/svg" height="361px" width="256px" version="1.1" preserveAspectRatio="xMidYMid" xmlns:xlink="http://www.w3.org/1999/xlink" viewBox="0 0 256 361">
 <path d="m127.84 360.09l-104.18-28.92-23.215-260.4 255.1-0.004-23.23 260.36-104.47 28.96z" fill="#264DE4"/>
 <path d="m212.42 314.55l19.86-222.49-104.28-0.003v245.89l84.42-23.4z" fill="#2965F1"/>
 <path d="m53.669 188.64l2.862 31.93h71.469v-31.93h-74.331z" fill="#EBEBEB"/>
 <path d="m47.917 123.99l2.903 31.94h77.18v-31.94h-80.083z" fill="#EBEBEB"/>
 <path d="m128 271.58l-0.14 0.04-35.568-9.61-2.274-25.47h-32.06l4.474 50.15 65.418 18.16 0.15-0.04v-33.23z" fill="#EBEBEB"/>
 <path d="m60.484 0h38.681v16.176h-22.506v16.176h22.506v16.175h-38.681v-48.527z"/>
 <path d="m106.9 0h38.68v14.066h-22.5v2.813h22.5v32.352h-38.68v-14.769h22.51v-2.814h-22.51v-31.648z"/>
 <path d="m153.32 0h38.68v14.066h-22.51v2.813h22.51v32.352h-38.68v-14.769h22.5v-2.814h-22.5v-31.648z"/>
 <path d="m202.13 188.64l5.76-64.65h-80v31.94h45l-2.9 32.71h-42.1v31.93h39.33l-3.71 41.42-35.62 9.62v33.22l65.47-18.14 0.48-5.4 7.51-84.08 0.78-8.57z" fill="#fff"/>
</svg>
