<?xml version="1.0" encoding="UTF-8" standalone="no"?>
<svg xmlns="http://www.w3.org/2000/svg" height="722px" width="512px" version="1.1" xmlns:xlink="http://www.w3.org/1999/xlink" viewBox="0 0 512 116">
 <g fill-rule="evenodd" fill="none">
	<path d="m489.72 8.6461l21.42 0.1177s-39.83 53.964-43.08 58.362c-1.05 1.424-2.66 2.96-3.47 4.864-2.06 4.786-4.17 15.285-4.17 15.285l-19.6 0.098s3.05-10.944 2.92-16.773c-0.11-5.092-2.71-10.178-4.16-15.285-1.48-5.169-3.48-15.286-3.48-15.286h20.15l2.78 11.117 30.69-42.5" fill="#1A1918"/>
	<path d="m449.16 20.027c3.95 2.383 6.38 15.529 6.38 15.529s-20.69 0.305-31.94 0.305h-9.73l-11.81 51.414h-18.07s11.24-55.874 13.9-66.004c0.86-3.279 5.89-2.717 14.39-2.717h13.57c8.76 0 19-1.119 23.31 1.473" fill="#1A1918"/>
	<path d="m365.06 45.067s0.56-3.301-1.91-7.122c-2.11-3.258-4.06-4.016-9.62-4.189-15.7-0.494-15.39 11.137-15.39 11.137l26.92 0.174zm17.02-13.319c2.3 8.296-2.08 27.791-2.08 27.791s-22.9-0.382-35.44 0c-3.89 0.119-8.56-0.424-9.72 1.39-1.64 2.542 0.59 6.455 2.48 8.108 2.18 1.903 6.42 2.119 7.94 2.313 10.18 1.293 31.48 0.334 31.48 0.334l-3.69 16.341s-30.1 1.508-45.16-2.085c-2.97-0.708-5.76-2.139-7.64-4.168-0.52-0.555-0.96-1.312-1.45-1.966-0.39-0.522-1.52-2.237-2.03-3.593-3.44-9.164 0.41-26.721 4.17-36.128 0.44-1.091 0.99-2.473 1.57-3.648 0.72-1.465 1.33-3.119 1.9-3.995 0.39-0.604 0.87-0.993 1.28-1.563 0.46-0.674 1-1.327 1.5-1.91 1.39-1.612 2.97-2.752 4.87-4.168 6.27-4.698 17.62-8.345 31.26-6.949 5.14 0.528 12.89 2.362 16.68 7.643 1.01 1.411 1.51 4.21 2.08 6.253z" fill="#1A1918"/>
	<path d="m299.23 18.491l17.51-0.104s-9.76 46.307-14.73 68.888h-20.15c-14.08 0-26.63 1.744-31.96-8.338-5.18-9.789-0.24-25.887 2.08-36.824 1.64-7.739 5.1-23.559 5.1-23.559l18.14-0.167s-5.12 24.63-7.26 36.928c-0.76 4.405-2.34 8.553-0.69 11.811 1.56 3.099 3.75 3.321 10.42 3.474 2.11 0.049 9.03 0 9.03 0l12.51-52.109" fill="#1A1918"/>
	<path d="m217.24 51.84c1.84-6.516 4.51-13.582 4.17-19.454-0.37-6.28-5.63-11.998-9.03-13.2-10.23-3.613-19.81 1.438-23.62 5.558-4.93 5.336-6.6 11.569-8.34 20.149-1.3 6.371-2.36 13.096 0 18.064 4.18 8.783 17.22 6.865 31.27 6.949 2.08-5.586 3.8-11.861 5.55-18.066zm24.32-25.706c2 14.548-5.67 30.606-10.96 44.57 5.39 0.487 10.11-0.075 10.45 0.327 0.36 0.521-3.61 16.668-4.99 16.709-4.28 0.112-18.46 0.23-24.37 0.23-19.3 0-37.35 1.257-46.55-8.337-3.74-3.898-6.33-10.583-6.95-15.286-1.05-7.851 0.26-16.495 2.08-23.622 1.65-6.435 3.76-12.507 6.95-18.066 8.11-14.152 22.21-24.657 45.86-22.232 4.58 0.47243 11.17 2.4802 15.28 4.8627 0.29 0.1677 1.28 0.9593 1.51 1.0985 5.56 3.5369 10.62 11.978 11.69 19.746z" fill="#1A1918"/>
	<path d="m156.19 18.574c-1.16 5.315-2.33 11.34-3.56 16.592h-19.46c1.51-5.822 2.67-11.61 4.17-16.675 6.23 0 12.02 0.083 18.85 0.083" fill="#1A1918"/>
	<path d="m132.48 40.029h18.76c-2.45 13.577-7.31 35.476-11.12 50.72-2.38 9.541-3.97 16.501-10.42 21.541-0.58 0.45-0.91 0.23-1.39 0.69-1.19 1.14-6.68 2.45-9.73 2.78-4.94 0.54-10.54 0.07-16.61-0.05 1.59-5.82 3.39-12.8 4.8-18.013 14.82 1.793 15.2-12.215 18.07-25.707 1.66-7.796 6.69-28.834 7.64-31.961" fill="#1A1918"/>
	<g transform="translate(0 8.8276)" fill="#21609B">
	<path d="m88.708 66.637l-0.402 1.041c-6.851 13.34-18.989 21.525-36.303 21.886-8.094 0.166-15.806-1.91-20.844-4.169-10.872-4.884-20.017-13.944-25.011-23.622-7.1642-13.875-8.4559-33.177 6.44-47.593 0.23 0-1.807 3.126-1.577 3.126l-0.41 1.334c-10.734 33.607 22.337 62.406 54.485 59.112 7.726-0.791 17.578-5.022 23.622-11.115"/>
	<path d="m69.254 52.74c8.088 0.056 16.536-3.724 21.539-9.032-4.377 11.11-17.049 18.252-34.044 15.98-14.229-1.904-27.785-16.223-29.181-30.571-1.021-10.442 2.618-16.674 8.615-24.233-2.084 3.9534-2.863 7.003-3.057 8.948-2.278 22.588 18.044 38.79 36.128 38.908"/>
	<path d="m89.981 24.685c-1.258 2.884-8.497 8.33-11.694 9.011-12.659 2.696-20.766-3.307-25.013-10.137-0.631-1.021-1.798-3.807-2.007-4.516-1.647-5.6-0.89-14.069 4.023-18.454-1.48 4.1691-1.696 9.0115-0.917 12.159 0.472 1.904 1.91 5.226 3.349 7.316 2.618 3.808 4.279 4.733 7.642 6.754 1.515 0.91 3.14 1.64 3.842 1.841 3.189 0.938 9.922 3.412 20.775-3.974"/>
	</g>
 </g>
</svg>
