<?xml version="1.0" encoding="UTF-8" standalone="no"?>
<svg xmlns="http://www.w3.org/2000/svg" height="361px" width="256px" version="1.1" preserveAspectRatio="xMidYMid" xmlns:xlink="http://www.w3.org/1999/xlink" viewBox="0 0 256 252">
 <path d="m235.65 194.21c-13.92-0.35-24.71 1.05-33.75 4.87-2.61 1.05-6.79 1.05-7.14 4.35 1.39 1.4 1.57 3.66 2.79 5.57 2.09 3.48 5.74 8.18 9.04 10.61 3.66 2.79 7.31 5.57 11.14 8.01 6.78 4.17 14.44 6.61 21.05 10.78 3.83 2.44 7.65 5.57 11.48 8.18 1.92 1.39 3.13 3.65 5.57 4.52v-0.52c-1.22-1.56-1.57-3.83-2.78-5.56-1.74-1.74-3.48-3.31-5.22-5.05-5.05-6.79-11.31-12.7-18.1-17.57-5.56-3.83-17.74-9.05-20.01-15.49l-0.34-0.34c3.82-0.35 8.35-1.74 12-2.79 5.92-1.56 11.31-1.22 17.4-2.78 2.78-0.7 5.57-1.57 8.35-2.44v-1.56c-3.13-3.14-5.39-7.31-8.7-10.27-8.87-7.65-18.61-15.13-28.71-21.4-5.39-3.48-12.35-5.74-18.09-8.7-2.09-1.04-5.57-1.56-6.78-3.3-3.14-3.83-4.88-8.88-7.14-13.4-5.04-9.57-9.92-20.18-14.26-30.27-3.13-6.79-5.05-13.573-8.88-19.835-17.92-29.577-37.4-47.497-67.328-65.07-6.437-3.653-14.092-5.219-22.269-7.132-4.348-0.175-8.699-0.522-13.048-0.697-2.784-1.218-5.568-4.523-8.004-6.089-9.915-6.2639-35.492-19.833-42.799-1.9133-4.6976 11.308 6.9593 22.442 10.961 28.185 2.959 4.001 6.785 8.524 8.873 13.048 1.218 2.956 1.565 6.09 2.783 9.221 2.785 7.653 5.393 16.18 9.048 23.314 1.914 3.653 4.001 7.481 6.437 10.786 1.392 1.913 3.827 2.784 4.35 5.915-2.435 3.477-2.61 8.697-4.003 13.047-6.263 19.66-3.826 44.02 5.046 58.46 2.783 4.35 9.395 13.92 18.268 10.26 7.829-3.13 6.089-13.04 8.351-21.74 0.523-2.09 0.175-3.48 1.218-4.87 0.001 0.17 0 0.34 0 0.34 2.436 4.87 4.871 9.57 7.133 14.44 5.394 8.53 14.788 17.4 22.613 23.32 4.18 3.13 7.49 8.52 12.71 10.44v-0.53h-0.35c-1.05-1.56-2.61-2.26-4-3.48-3.14-3.13-6.62-6.96-9.05-10.43-7.307-9.75-13.746-20.53-19.487-31.67-2.783-5.39-5.22-11.31-7.481-16.7-1.045-2.09-1.045-5.22-2.784-6.26-2.61 3.82-6.437 7.13-8.351 11.83-3.304 7.48-3.653 16.7-4.871 26.27-0.696 0.17-0.349 0-0.697 0.35-5.566-1.4-7.481-7.14-9.569-12.01-5.219-12.35-6.089-32.19-1.565-46.45 1.218-3.66 6.438-15.138 4.35-18.618-1.044-3.306-4.525-5.219-6.438-7.829-2.261-3.306-4.698-7.481-6.263-11.135-4.176-9.743-6.264-20.53-10.787-30.273-2.088-4.524-5.741-9.221-8.699-13.396-3.305-4.697-6.959-8.004-9.5687-13.571-0.8688-1.913-2.088-5.045-0.6964-7.133 0.3482-1.392 1.0434-1.913 2.4361-2.2614 2.262-1.9145 8.699 0.5214 10.961 1.5654 6.437 2.608 11.83 5.046 17.224 8.699 2.435 1.74 5.045 5.046 8.176 5.916h3.654c5.568 1.217 11.831 0.348 17.05 1.913 9.222 2.957 17.572 7.307 25.054 12.005 22.792 14.44 41.582 34.971 54.282 59.501 2.09 3.997 2.96 7.657 4.87 11.827 3.66 8.53 8.18 17.23 11.83 25.58 3.65 8.18 7.13 16.53 12.35 23.31 2.61 3.66 13.05 5.57 17.75 7.48 3.48 1.57 8.87 2.96 12.01 4.88 5.91 3.65 11.83 7.82 17.39 11.83 2.79 2.08 11.49 6.43 12.01 9.91z" fill="#00546B"/>
 <path d="m58.186 43.022c-2.957 0-5.044 0.35-7.132 0.871v0.348h0.348c1.393 2.784 3.827 4.698 5.566 7.133 1.393 2.783 2.61 5.568 4.003 8.352 0.173-0.175 0.347-0.348 0.347-0.348 2.437-1.741 3.654-4.524 3.654-8.699-1.044-1.218-1.218-2.436-2.088-3.654-1.043-1.741-3.306-2.61-4.698-4.003z" fill="#00546B"/>
</svg>
