<?xml version="1.0" encoding="UTF-8" standalone="no"?>
<svg xmlns="http://www.w3.org/2000/svg" height="361px" width="256px" version="1.1" preserveAspectRatio="xMidYMid" xmlns:xlink="http://www.w3.org/1999/xlink" viewBox="0 0 256 282">
 <g fill="#8CC84B">
	<path d="m116.5 3.5804c6.97-3.9849 16.03-4.003 22.99 0 34.99 19.774 70 39.517 104.99 59.303 6.58 3.707 10.98 11.031 10.92 18.614v118.96c0.04 7.9-4.79 15.4-11.74 19.02-34.88 19.67-69.74 39.36-104.61 59.02-7.11 4.07-16.36 3.75-23.24-0.64-10.46-6.07-20.933-12.1-31.39-18.15-2.138-1.28-4.547-2.29-6.056-4.36 1.334-1.8 3.719-2.02 5.657-2.81 4.365-1.39 8.374-3.62 12.384-5.78 1.014-0.69 2.252-0.43 3.224 0.2 8.941 5.12 17.801 10.4 26.781 15.48 1.91 1.1 3.85-0.37 5.48-1.28 34.23-19.34 68.5-38.62 102.72-57.97 1.27-0.61 1.97-1.95 1.87-3.34 0.02-39.25 0.01-78.5 0.01-117.74 0.15-1.579-0.76-3.028-2.19-3.674-34.76-19.574-69.5-39.179-104.25-58.759-1.25-0.845-2.85-0.851-4.1-0.006-34.75 19.586-69.485 39.209-104.24 58.783-1.417 0.646-2.371 2.071-2.202 3.653 0.006 39.243 0 78.493 0 117.75-0.121 1.38 0.628 2.7 1.89 3.3 9.274 5.26 18.56 10.48 27.84 15.72 5.228 2.81 11.647 4.49 17.407 2.33 5.083-1.82 8.646-7.01 8.549-12.41 0.048-39.01-0.024-78.03 0.036-117.04-0.127-1.737 1.516-3.168 3.2-3.005 4.456-0.03 8.918-0.061 13.374 0.012 1.859-0.042 3.139 1.823 2.91 3.568-0.018 39.265 0.048 78.525-0.03 117.8 0.012 10.45-4.287 21.84-13.966 26.96-11.924 6.17-26.662 4.86-38.442-1.06-10.198-5.09-19.93-11.1-29.947-16.55-6.9615-3.6-11.774-11.13-11.725-19.03l-0.00023-118.96c-0.07245-7.743 4.5041-15.2 11.29-18.852 34.874-19.683 69.742-39.379 104.61-59.068v0.0004z"/>
	<path d="m146.93 85.989c15.21-0.978 31.49-0.579 45.18 6.914 10.59 5.742 16.47 17.797 16.66 29.567-0.3 1.59-1.96 2.46-3.47 2.35-4.42 0-8.83 0.06-13.25-0.03-1.87 0.08-2.95-1.65-3.19-3.3-1.27-5.64-4.34-11.22-9.64-13.93-8.14-4.08-17.58-3.87-26.45-3.79-6.48 0.34-13.45 0.91-18.94 4.72-4.21 2.88-5.49 8.71-3.99 13.4 1.42 3.37 5.31 4.46 8.49 5.46 18.33 4.79 37.75 4.31 55.73 10.62 7.45 2.58 14.73 7.58 17.28 15.37 3.33 10.45 1.87 22.93-5.56 31.32-6.03 6.9-14.81 10.65-23.56 12.7-11.65 2.59-23.74 2.66-35.56 1.5-11.12-1.26-22.7-4.19-31.28-11.76-7.35-6.38-10.93-16.31-10.58-25.9 0.09-1.62 1.7-2.75 3.25-2.61 4.45-0.04 8.89-0.05 13.33 0 1.78-0.12 3.09 1.41 3.18 3.08 0.83 5.37 2.84 11 7.52 14.19 9.03 5.82 20.37 5.42 30.71 5.59 8.57-0.38 18.19-0.5 25.18-6.16 3.69-3.23 4.78-8.64 3.78-13.29-1.08-3.92-5.18-5.75-8.71-6.94-18.1-5.73-37.74-3.65-55.66-10.12-7.27-2.58-14.31-7.44-17.1-14.91-3.9-10.58-2.11-23.66 6.1-31.766 8-8.06 19.56-11.164 30.55-12.275z"/>
 </g>
</svg>
