<?xml version="1.0" encoding="utf-8"?>
<!DOCTYPE svg PUBLIC "-//W3C//DTD SVG 1.1//EN" "http://www.w3.org/Graphics/SVG/1.1/DTD/svg11.dtd">
<svg version="1.1" id="Camada_1" xmlns="http://www.w3.org/2000/svg" xmlns:xlink="http://www.w3.org/1999/xlink" x="0px" y="0px"
	 viewBox="0 0 150 150" enable-background="new 0 0 150 150" xml:space="preserve" width="150px" height="150px">
<g>
	<polygon fill="#FDD8A5" points="69,60.7 69,65.9 74.8,69.7 80.8,65.9 80.8,60.7 	"/>
	<polygon fill="#F6BF84" points="69,60.7 69,65.9 72.2,68 80.8,62.6 80.8,60.7 	"/>
	<path fill="#FDD8A5" d="M85.3,49.1c0,0-0.8-0.9-1.2,0.1c0,0,2.5-12.1-9.2-12.1s-9.2,12.1-9.2,12.1c-0.4-1.1-1.2-0.1-1.2-0.1
		c-0.7,6,2,6.6,2,6.6s0,3.4,3.1,6.4c3.1,3.1,5.4,3.1,5.4,3.1s2.4-0.4,5.5-3.5c3.1-3.1,2.9-6,2.9-6S86,55.1,85.3,49.1z"/>
	<path fill="#9B9B58" d="M65.8,51.2l0.8-3.6c0,0,0.8-2.9,1.2-3.6c0.4-0.7,1.2-1.5,1.2-1.5s2.2,0.9,6.6,1.9c4.4,0.9,5.5,0.8,5.5,0.8
		l-1.2-1.5h2.4c0,0,0.1,2.1,0.8,2.8c0.7,0.7,0.9,4.7,0.9,4.7l1.1-1.1l0.7-2.3v-7.4c0,0-2.8-6.7-10.9-6.7s-10.7,7.4-10.7,7.4
		s-0.5,6.3,0,7C64.8,48.8,65.8,51.2,65.8,51.2z"/>
	<path fill="#FDD8A5" d="M25.5,85.6c0,0,3.8,1.2,4.8,1.4s3.1,0.4,4.2,1.7c1.1,1.3,0.8,1.2,1.2,1.5c0.4,0.3,1.8,1.4,1.8,1.4l-4.1,3.9
		c0,0-1.4-0.9-1.9-1s-7.3-1.5-7.9-1.9c-0.5-0.4-5.6-6.2-5.7-6.4c-0.1-0.2,0-0.5,0.2-0.6c0.2-0.1,1.1-0.1,2.1,1
		c1,1.1,3.2,3.2,3.2,3.2l-3.1-3.6c0,0-0.1-0.6,0-0.6c0.1,0,1.1-0.1,2.1,1c1.1,1.1,3.3,3.8,5.6,3.6c2.3-0.2,1.1-1.5,1.1-1.5
		S27.2,88,26.7,88S24.9,86.8,25.5,85.6z"/>
	<g>
		<g>
			<path fill="#FDD8A5" d="M25.2,85.6c0,0,3.8,1.2,4.8,1.4c1,0.1,3.1,0.4,4.2,1.7c1.1,1.3,0.8,1.2,1.2,1.5c0.4,0.3,1.8,1.4,1.8,1.4
				l-4.1,3.9c0,0-1.4-0.9-1.9-1c-0.5-0.1-7.3-1.5-7.9-1.9c-0.5-0.4-5.6-6.2-5.7-6.4c-0.1-0.2,0-0.5,0.2-0.6c0.2-0.1,1.1-0.1,2.1,1
				c1,1.1,3.2,3.2,3.2,3.2l-3.1-3.6c0,0-0.1-0.6,0-0.6c0.1,0,1.1-0.1,2.1,1c1.1,1.1,3.3,3.8,5.6,3.6c2.3-0.2,1.1-1.5,1.1-1.5
				S26.9,88,26.4,88C26,88,24.6,86.8,25.2,85.6z"/>
			<path fill="#FDD8A5" d="M124.5,85.6c0,0-3.8,1.2-4.8,1.4c-1,0.1-3.1,0.4-4.2,1.7c-1.1,1.3-0.8,1.2-1.2,1.5
				c-0.4,0.3-1.8,1.4-1.8,1.4l4.1,3.9c0,0,1.4-0.9,1.9-1c0.5-0.1,7.3-1.5,7.9-1.9c0.5-0.4,5.6-6.2,5.7-6.4c0.1-0.2,0-0.5-0.2-0.6
				c-0.2-0.1-1.1-0.1-2.1,1c-1,1.1-3.2,3.2-3.2,3.2l3.1-3.6c0,0,0.1-0.6,0-0.6c-0.1,0-1.1-0.1-2.1,1c-1.1,1.1-3.3,3.8-5.6,3.6
				c-2.3-0.2-1.1-1.5-1.1-1.5s1.9-0.6,2.4-0.6C123.8,88,125.2,86.8,124.5,85.6z"/>
		</g>
		<g>
			<polygon fill="#FCF6FA" points="109.8,91.4 113.1,89.5 117.7,96.2 114.6,98.1 			"/>
			<path fill="#496F9A" d="M80.8,65.9l14.4,6.2l9,21.1l6.6-3.8l5.4,8.5c0,0-12.2,6.8-12.8,6.8c-0.6,0-0.6,0.3-2.3-1.3
				c-1.7-1.6-9.4-11.5-9.4-11.5v25H74.9V89.5L80.8,65.9z"/>
		</g>
		<g>
			<polygon fill="#FCF6FA" points="40.1,91.4 36.8,89.5 32.2,96.2 35.3,98.1 			"/>
			<path fill="#3A5374" d="M69,65.9l-14.8,6.5l-8.4,20.9l-6.6-3.8L33.9,98c0,0,12.2,6.8,12.8,6.8c0.6,0,0.6,0.3,2.3-1.3
				c1.7-1.6,9.4-11.5,9.4-11.5v25h16.4V89.5L69,65.9z"/>
		</g>
	</g>
	<polygon fill="#E8E7E8" points="69,65.6 74.7,69.3 74.9,89.5 69,65.9 	"/>
	<polygon fill="#F3F3F3" points="80.8,65.7 74.6,69.2 74.9,89.5 80.8,65.9 	"/>
	<polygon opacity="0.5" fill="#C9C9C9" points="74.6,69.2 70.4,71.4 74.9,89.5 79.5,71.1 	"/>
	<polygon fill="#E84234" points="74.9,89.5 74.6,73.2 74.6,69.2 72.5,70.3 73.8,72.1 72.8,81.5 	"/>
	<polygon fill="#EC6960" points="74.9,89.5 74.6,73.2 74.6,69.2 76.7,70.3 75.4,72.1 76.9,81.8 	"/>
	<polygon fill="#E84234" points="74.9,89.2 74.9,89.5 72.8,81.5 74.6,69.2 	"/>
	<polygon fill="#496F9A" points="69,65.6 63.2,68.2 66.7,72 65.1,75.1 74.9,89.5 	"/>
	<polygon fill="#3A5374" points="80.8,65.7 86.6,68.2 83,72 84.6,75.1 74.8,89.5 	"/>
	<g>
		<rect x="61.4" y="104.1" fill="#496F9A" width="7.3" height="1.8"/>
		<rect x="81.1" y="104.1" fill="#3A5374" width="7.3" height="1.8"/>
	</g>
	<g>
		<g>
			<path fill="#D2D3D3" d="M55.9,107.2c3.6,0,6.8,1.5,9,3.9c0.9-1,2.2-1.5,3.7-1.5c2.8,0,5.1,2.3,5.1,5.1c0,0.2,0,0.3,0,0.5
				c0.4,0,0.7-0.1,1.1-0.1c4.6,0,8.3,3.7,8.3,8.3c0,4.6-3.7,8.3-8.3,8.3H55.9c-6.8,0-12.2-5.5-12.2-12.2
				C43.7,112.7,49.2,107.2,55.9,107.2z"/>
			<path fill="#FFFFFF" d="M55.9,106.8c3.6,0,6.8,1.5,9,3.9c0.9-1,2.2-1.5,3.7-1.5c2.8,0,5.1,2.3,5.1,5.1c0,0.2,0,0.3,0,0.5
				c0.4,0,0.7-0.1,1.1-0.1c4.6,0,8.3,3.7,8.3,8.3c0,4.6-3.7,8.3-8.3,8.3H55.9c-6.8,0-12.2-5.5-12.2-12.2
				C43.7,112.3,49.2,106.8,55.9,106.8z"/>
		</g>
		<g>
			<path fill="#D2D3D3" d="M93.9,107.4c-3.6,0-6.8,1.5-9,3.9c-0.9-1-2.2-1.5-3.7-1.5c-2.8,0-5.1,2.3-5.1,5.1c0,0.2,0,0.3,0,0.5
				c-0.4,0-0.7-0.1-1.1-0.1c-4.6,0-8.3,3.7-8.3,8.3c0,4.6,3.7,8.3,8.3,8.3h18.8c6.8,0,12.2-5.5,12.2-12.2
				C106.1,112.9,100.6,107.4,93.9,107.4z"/>
			<path fill="#FFFFFF" d="M93.9,107c-3.6,0-6.8,1.5-9,3.9c-0.9-1-2.2-1.5-3.7-1.5c-2.8,0-5.1,2.3-5.1,5.1c0,0.2,0,0.3,0,0.5
				c-0.4,0-0.7-0.1-1.1-0.1c-4.6,0-8.3,3.7-8.3,8.3c0,4.6,3.7,8.3,8.3,8.3h18.8c6.8,0,12.2-5.5,12.2-12.2
				C106.1,112.5,100.6,107,93.9,107z"/>
		</g>
	</g>
	<polygon fill="#496F9A" points="74.8,89.5 74.8,114.7 75.4,114.7 	"/>
	<g>
		<g>
			<circle fill="#385572" cx="38" cy="34.7" r="1.8"/>
			<path fill="#385572" d="M26.6,42.7l-0.1,0c-0.2,0-0.4-0.1-0.4-0.3l0,0c0-0.2,0.1-0.4,0.3-0.4l0.1,0c0.2,0,0.4,0.1,0.4,0.3l0,0
				C27,42.4,26.8,42.6,26.6,42.7z"/>
			<path fill="#385572" d="M27.2,43.5l-0.1,0c-0.2,0-0.4-0.1-0.4-0.3l0,0c0-0.2,0.1-0.4,0.3-0.4l0.1,0c0.2,0,0.4,0.1,0.4,0.3l0,0
				C27.5,43.3,27.4,43.5,27.2,43.5z"/>
			<path fill="#2C465F" d="M28.7,47.6L28.7,47.6c-0.6,0.4-1.5,0.3-1.9-0.3L23,42c-0.4-0.6-0.3-1.5,0.3-1.9l0,0
				c0.6-0.4,1.5-0.3,1.9,0.3l3.8,5.3C29.5,46.3,29.3,47.2,28.7,47.6z"/>
			<path fill="#DFDEE0" d="M25.8,32.9l0.8,4.1l0.8,4.1c0,0,8.8-2.2,11.6,1.5l-1.6-7.8L36,27C34.8,31.5,25.8,32.9,25.8,32.9z"/>
			<path fill="#FFC735" d="M39.2,43.2L39.2,43.2c-0.4,0.1-0.7-0.2-0.8-0.5l-3.1-15.4c-0.1-0.4,0.2-0.7,0.5-0.8l0,0
				c0.4-0.1,0.7,0.2,0.8,0.5l3.1,15.4C39.8,42.7,39.6,43.1,39.2,43.2z"/>
			<path fill="#3A5374" d="M25.8,32.9l-5,1.2c-0.9,0.2-1.5,1.3-1.2,2.5l0.7,3.6c0.2,1.2,1.2,2,2.1,1.8l5.1-0.8L25.8,32.9z"/>
			<g>
				<path fill="#2C465F" d="M21.7,35.9l-2.2,0.4l0.1,0.5l2.2-0.4c0.1,0,0.2-0.2,0.2-0.3C22,35.9,21.9,35.8,21.7,35.9z"/>
				<path fill="#2C465F" d="M21.9,36.8l-2.2,0.4l0.1,0.5l2.2-0.4c0.1,0,0.2-0.2,0.2-0.3C22.2,36.8,22,36.7,21.9,36.8z"/>
				<path fill="#2C465F" d="M22.1,37.7l-2.2,0.4l0.1,0.5l2.2-0.4c0.1,0,0.2-0.2,0.2-0.3C22.4,37.7,22.2,37.6,22.1,37.7z"/>
				<path fill="#2C465F" d="M22.3,38.6L20.1,39l0.1,0.5l2.2-0.4c0.1,0,0.2-0.2,0.2-0.3C22.6,38.6,22.4,38.5,22.3,38.6z"/>
				<path fill="#2C465F" d="M22.4,39.4l-2.2,0.4l0.1,0.5l2.2-0.4c0.1,0,0.2-0.2,0.2-0.3C22.7,39.5,22.6,39.4,22.4,39.4z"/>
			</g>
		</g>
		<g>

				<rect x="111.7" y="36" transform="matrix(0.944 -0.3298 0.3298 0.944 -6.6594 41.9999)" fill="#496F9A" width="17.5" height="9.2"/>
			<polygon fill="#3A5374" points="110.7,39.1 120.5,40.6 113.7,47.9 			"/>
			<polygon fill="#3A5374" points="127.2,33.4 120.5,40.6 130.2,42.1 			"/>
			<polygon fill="#3A5374" points="110.7,39.1 117,30.8 127.2,33.4 			"/>
			<polygon fill="#FFFFFF" points="110.7,39.1 110.2,37.8 126.7,32.1 127.2,33.4 120.5,40.6 			"/>
			<path fill="#E0E1E0" d="M123.7,35l-9.2,3.2c-0.2,0.1-0.3,0-0.4-0.2v0c-0.1-0.2,0-0.3,0.2-0.4l9.2-3.2c0.2-0.1,0.3,0,0.4,0.2l0,0
				C123.9,34.8,123.9,35,123.7,35z"/>
			<path fill="#E0E1E0" d="M124.1,36.3l-9.2,3.2c-0.2,0.1-0.3,0-0.4-0.2v0c-0.1-0.2,0-0.3,0.2-0.4l9.2-3.2c0.2-0.1,0.3,0,0.4,0.2
				l0,0C124.4,36,124.3,36.2,124.1,36.3z"/>
		</g>
	</g>
	<g>
		<g>
			<path fill="#F99C2B" d="M133.5,76.6l-1.2-0.7c-0.1-0.1-0.2-0.3-0.1-0.4l2.1-3.3c0.1-0.1,0.3-0.2,0.4-0.1l1.2,0.7
				c0.1,0.1,0.2,0.3,0.1,0.4l-2.1,3.3C133.9,76.7,133.7,76.7,133.5,76.6z"/>
			<path fill="#B8E2DD" d="M141.1,70.6c-1.2,1.9-3.6,2.4-5.5,1.3c-1.9-1.1-2.5-3.5-1.3-5.4c1.2-1.9,3.6-2.4,5.5-1.3
				C141.7,66.3,142.3,68.8,141.1,70.6z"/>
			<g>
				<defs>
					<path id="SVGID_1_" d="M133.4,76.9l-1.2-0.7c-0.1-0.1-0.2-0.3-0.1-0.4l2.1-3.3c0.1-0.1,0.3-0.2,0.4-0.1l1.2,0.7
						c0.1,0.1,0.2,0.3,0.1,0.4l-2.1,3.3C133.7,76.9,133.5,77,133.4,76.9z"/>
				</defs>
				<clipPath id="SVGID_2_">
					<use xlink:href="#SVGID_1_"  overflow="visible"/>
				</clipPath>
				<path clip-path="url(#SVGID_2_)" fill="#E28925" d="M140.4,64.2c-2.6-1.5-5.9-0.7-7.5,1.8c-1.6,2.5-0.8,5.8,1.8,7.4
					c2.6,1.5,5.9,0.7,7.5-1.8C143.8,69.1,143,65.8,140.4,64.2z M135.5,72.1c-1.8-1.1-2.4-3.4-1.3-5.3c1.1-1.8,3.5-2.4,5.3-1.3
					c1.8,1.1,2.4,3.4,1.3,5.3C139.8,72.6,137.4,73.2,135.5,72.1z"/>
			</g>
			<path fill="#FFC735" d="M140.6,64c-2.6-1.5-5.9-0.7-7.5,1.8c-1.6,2.5-0.8,5.8,1.8,7.4c2.6,1.5,5.9,0.7,7.5-1.8
				C143.9,68.8,143.1,65.5,140.6,64z M135.7,71.9c-1.8-1.1-2.4-3.4-1.3-5.3c1.1-1.8,3.5-2.4,5.3-1.3c1.8,1.1,2.4,3.4,1.3,5.3
				C139.9,72.4,137.5,73,135.7,71.9z"/>
			<path fill="#D3ECE8" d="M140.8,70.7c-0.9,1.5-2.8,1.9-4.3,1.1c-1.5-0.9-1.9-2.8-1-4.3c0.9-1.5,2.8-1.9,4.3-1.1
				C141.2,67.4,141.7,69.3,140.8,70.7z"/>
			<path fill="#EAF6F4" d="M140.1,71.2c-0.4,0.7-1.4,1-2.1,0.5c-0.7-0.4-1-1.4-0.5-2.1c0.4-0.7,1.4-1,2.1-0.5
				C140.4,69.5,140.6,70.5,140.1,71.2z"/>
			<g>
				<path fill="#F99C2B" d="M135.6,72c-1.9-1.1-2.5-3.5-1.3-5.4c1.2-1.9,3.6-2.5,5.5-1.3c1.9,1.1,2.5,3.5,1.3,5.4
					C140,72.5,137.5,73.1,135.6,72z M139.7,65.4c-1.8-1.1-4.1-0.5-5.2,1.3c-1.1,1.8-0.5,4.1,1.2,5.1c1.8,1.1,4.1,0.5,5.2-1.3
					C142.1,68.8,141.5,66.4,139.7,65.4z"/>
			</g>
			<polygon fill="#FDCA3B" points="132.1,80.4 129.6,78.9 131.4,76 133.9,77.6 			"/>
			<g>
				<path fill="#475B5A" d="M128.7,80.4c-0.1,0.2-0.1,0.4,0.1,0.5l1.9,1.2c0.2,0.1,0.4,0,0.5-0.1l0.9-1.4l-2.5-1.5L128.7,80.4z"/>
				<path fill="#475B5A" d="M134.7,75.6l-1.9-1.2c-0.2-0.1-0.4,0-0.5,0.1l-0.9,1.4l2.5,1.5l0.9-1.4C134.9,76,134.8,75.7,134.7,75.6z
					"/>
			</g>

				<rect x="131.1" y="76.8" transform="matrix(0.8581 0.5134 -0.5134 0.8581 58.2487 -57.1837)" fill="#F99C2B" width="3" height="0.1"/>

				<rect x="129.4" y="79.6" transform="matrix(0.8581 0.5134 -0.5134 0.8581 59.461 -55.8726)" fill="#F99C2B" width="3" height="0.1"/>
		</g>
		<g>
			<g>
				<path fill="#496F9A" d="M21.4,78.1l-0.8-0.2c0-0.4-0.1-0.9-0.2-1.3l0.7-0.5c0.1,0,0.1-0.2,0-0.2l-0.8-1.3c0-0.1-0.2-0.1-0.2,0
					l-0.7,0.4c-0.3-0.3-0.7-0.6-1-0.7l0.2-0.8c0-0.1,0-0.2-0.1-0.2L16.9,73c-0.1,0-0.2,0-0.2,0.1l-0.2,0.8c-0.4,0-0.9,0.1-1.3,0.2
					l-0.5-0.7c0-0.1-0.2-0.1-0.2,0l-1.3,0.8c-0.1,0-0.1,0.2,0,0.2l0.4,0.7c-0.3,0.3-0.6,0.7-0.7,1L12.2,76c-0.1,0-0.2,0-0.2,0.1
					l-0.3,1.5c0,0.1,0,0.2,0.1,0.2l0.8,0.2c0,0.4,0.1,0.9,0.2,1.3l-0.7,0.5c-0.1,0-0.1,0.2,0,0.2l0.8,1.3c0,0.1,0.2,0.1,0.2,0
					l0.7-0.4c0.3,0.3,0.7,0.6,1,0.7l-0.2,0.8c0,0.1,0,0.2,0.1,0.2l1.5,0.3c0.1,0,0.2,0,0.2-0.1l0.2-0.8c0.4,0,0.9-0.1,1.3-0.2
					l0.5,0.7c0,0.1,0.2,0.1,0.2,0l1.3-0.8c0.1,0,0.1-0.2,0-0.2l-0.4-0.7c0.3-0.3,0.6-0.7,0.7-1l0.8,0.2c0.1,0,0.2,0,0.2-0.1l0.3-1.5
					C21.6,78.2,21.5,78.1,21.4,78.1z M16.3,79.4c-0.8-0.2-1.4-1-1.2-1.8c0.2-0.8,1-1.4,1.8-1.2c0.8,0.2,1.4,1,1.2,1.8
					C17.9,79.1,17.1,79.6,16.3,79.4z"/>
				<g>
					<defs>
						<path id="SVGID_3_" d="M21.4,78.1l-0.8-0.2c0-0.4-0.1-0.9-0.2-1.3l0.7-0.5c0.1,0,0.1-0.2,0-0.2l-0.8-1.3c0-0.1-0.2-0.1-0.2,0
							l-0.7,0.4c-0.3-0.3-0.7-0.6-1-0.7l0.2-0.8c0-0.1,0-0.2-0.1-0.2L16.9,73c-0.1,0-0.2,0-0.2,0.1l-0.2,0.8c-0.4,0-0.9,0.1-1.3,0.2
							l-0.5-0.7c0-0.1-0.2-0.1-0.2,0l-1.3,0.8c-0.1,0-0.1,0.2,0,0.2l0.4,0.7c-0.3,0.3-0.6,0.7-0.7,1L12.2,76c-0.1,0-0.2,0-0.2,0.1
							l-0.3,1.5c0,0.1,0,0.2,0.1,0.2l0.8,0.2c0,0.4,0.1,0.9,0.2,1.3l-0.7,0.5c-0.1,0-0.1,0.2,0,0.2l0.8,1.3c0,0.1,0.2,0.1,0.2,0
							l0.7-0.4c0.3,0.3,0.7,0.6,1,0.7l-0.2,0.8c0,0.1,0,0.2,0.1,0.2l1.5,0.3c0.1,0,0.2,0,0.2-0.1l0.2-0.8c0.4,0,0.9-0.1,1.3-0.2
							l0.5,0.7c0,0.1,0.2,0.1,0.2,0l1.3-0.8c0.1,0,0.1-0.2,0-0.2l-0.4-0.7c0.3-0.3,0.6-0.7,0.7-1l0.8,0.2c0.1,0,0.2,0,0.2-0.1
							l0.3-1.5C21.6,78.2,21.5,78.1,21.4,78.1z M16.3,79.4c-0.8-0.2-1.4-1-1.2-1.8c0.2-0.8,1-1.4,1.8-1.2c0.8,0.2,1.4,1,1.2,1.8
							C17.9,79.1,17.1,79.6,16.3,79.4z"/>
					</defs>
					<clipPath id="SVGID_4_">
						<use xlink:href="#SVGID_3_"  overflow="visible"/>
					</clipPath>

						<rect x="16.6" y="70.1" transform="matrix(-0.9964 -8.443248e-002 8.443248e-002 -0.9964 34.0534 157.0971)" clip-path="url(#SVGID_4_)" fill="#2C465F" width="7.5" height="15.5"/>
				</g>
			</g>
			<g>
				<path fill="#385572" d="M12.4,74.4l-0.5-0.1c0-0.3,0-0.5-0.1-0.7l0.4-0.3c0,0,0.1-0.1,0-0.1l-0.5-0.8c0,0-0.1-0.1-0.1,0
					l-0.4,0.3c-0.2-0.2-0.4-0.3-0.6-0.4l0.1-0.5c0-0.1,0-0.1-0.1-0.1l-0.9-0.2c-0.1,0-0.1,0-0.1,0.1l-0.1,0.5c-0.3,0-0.5,0-0.7,0.1
					l-0.3-0.4c0,0-0.1-0.1-0.1,0l-0.8,0.5c0,0-0.1,0.1,0,0.1l0.3,0.4c-0.2,0.2-0.3,0.4-0.4,0.6l-0.5-0.1c-0.1,0-0.1,0-0.1,0.1
					l-0.2,0.9c0,0.1,0,0.1,0.1,0.1l0.5,0.1c0,0.3,0,0.5,0.1,0.7l-0.4,0.3c0,0-0.1,0.1,0,0.1l0.5,0.8c0,0,0.1,0.1,0.1,0L7.9,76
					c0.2,0.2,0.4,0.3,0.6,0.4l-0.1,0.5c0,0.1,0,0.1,0.1,0.1l0.9,0.2c0.1,0,0.1,0,0.1-0.1l0.1-0.5c0.3,0,0.5,0,0.7-0.1l0.3,0.4
					c0,0,0.1,0.1,0.1,0l0.8-0.5c0,0,0.1-0.1,0-0.1l-0.3-0.4c0.2-0.2,0.3-0.4,0.4-0.6l0.5,0.1c0.1,0,0.1,0,0.1-0.1l0.2-0.9
					C12.5,74.4,12.4,74.4,12.4,74.4z M9.4,75.2c-0.5-0.1-0.8-0.6-0.7-1.1c0.1-0.5,0.6-0.8,1.1-0.7c0.5,0.1,0.8,0.6,0.7,1.1
					C10.3,74.9,9.9,75.3,9.4,75.2z"/>
				<g>
					<defs>
						<path id="SVGID_5_" d="M12.4,74.4l-0.5-0.1c0-0.3,0-0.5-0.1-0.7l0.4-0.3c0,0,0.1-0.1,0-0.1l-0.5-0.8c0,0-0.1-0.1-0.1,0
							l-0.4,0.3c-0.2-0.2-0.4-0.3-0.6-0.4l0.1-0.5c0-0.1,0-0.1-0.1-0.1l-0.9-0.2c-0.1,0-0.1,0-0.1,0.1l-0.1,0.5
							c-0.3,0-0.5,0-0.7,0.1l-0.3-0.4c0,0-0.1-0.1-0.1,0l-0.8,0.5c0,0-0.1,0.1,0,0.1l0.3,0.4c-0.2,0.2-0.3,0.4-0.4,0.6l-0.5-0.1
							c-0.1,0-0.1,0-0.1,0.1l-0.2,0.9c0,0.1,0,0.1,0.1,0.1l0.5,0.1c0,0.3,0,0.5,0.1,0.7l-0.4,0.3c0,0-0.1,0.1,0,0.1l0.5,0.8
							c0,0,0.1,0.1,0.1,0L7.9,76c0.2,0.2,0.4,0.3,0.6,0.4l-0.1,0.5c0,0.1,0,0.1,0.1,0.1l0.9,0.2c0.1,0,0.1,0,0.1-0.1l0.1-0.5
							c0.3,0,0.5,0,0.7-0.1l0.3,0.4c0,0,0.1,0.1,0.1,0l0.8-0.5c0,0,0.1-0.1,0-0.1l-0.3-0.4c0.2-0.2,0.3-0.4,0.4-0.6l0.5,0.1
							c0.1,0,0.1,0,0.1-0.1l0.2-0.9C12.5,74.4,12.4,74.4,12.4,74.4z M9.4,75.2c-0.5-0.1-0.8-0.6-0.7-1.1c0.1-0.5,0.6-0.8,1.1-0.7
							c0.5,0.1,0.8,0.6,0.7,1.1C10.3,74.9,9.9,75.3,9.4,75.2z"/>
					</defs>
					<use xlink:href="#SVGID_5_"  overflow="visible" fill="#496F9A"/>
					<clipPath id="SVGID_6_">
						<use xlink:href="#SVGID_5_"  overflow="visible"/>
					</clipPath>

						<rect x="9.6" y="69.6" transform="matrix(-0.9964 -8.442940e-002 8.442940e-002 -0.9964 17.2136 149.1424)" clip-path="url(#SVGID_6_)" fill="#2C465F" width="4.4" height="9.1"/>
				</g>
			</g>
			<g>
				<path fill="#385572" d="M17.7,69.6l-0.6-0.1c0-0.3-0.1-0.6-0.2-0.9l0.5-0.3c0.1,0,0.1-0.1,0-0.2l-0.6-0.9c0-0.1-0.1-0.1-0.2,0
					l-0.5,0.3c-0.2-0.2-0.5-0.4-0.7-0.5l0.1-0.6c0-0.1,0-0.1-0.1-0.1l-1.1-0.2c-0.1,0-0.1,0-0.1,0.1l-0.1,0.6
					c-0.3,0-0.6,0.1-0.9,0.2L13,66.2c0-0.1-0.1-0.1-0.2,0l-0.9,0.6c-0.1,0-0.1,0.1,0,0.2l0.3,0.5c-0.2,0.2-0.4,0.5-0.5,0.7L11.1,68
					c-0.1,0-0.1,0-0.1,0.1l-0.2,1.1c0,0.1,0,0.1,0.1,0.1l0.6,0.1c0,0.3,0.1,0.6,0.2,0.9L11,70.7c-0.1,0-0.1,0.1,0,0.2l0.6,0.9
					c0,0.1,0.1,0.1,0.2,0l0.5-0.3c0.2,0.2,0.5,0.4,0.7,0.5l-0.1,0.6c0,0.1,0,0.1,0.1,0.1L14,73c0.1,0,0.1,0,0.1-0.1l0.1-0.6
					c0.3,0,0.6-0.1,0.9-0.2l0.3,0.5c0,0.1,0.1,0.1,0.2,0l0.9-0.6c0.1,0,0.1-0.1,0-0.2l-0.3-0.5c0.2-0.2,0.4-0.5,0.5-0.7l0.6,0.1
					c0.1,0,0.1,0,0.1-0.1l0.2-1.1C17.8,69.6,17.8,69.6,17.7,69.6z M14,70.5c-0.6-0.1-1-0.7-0.8-1.3s0.7-1,1.3-0.8
					c0.6,0.1,1,0.7,0.8,1.3C15.2,70.3,14.6,70.7,14,70.5z"/>
				<g>
					<defs>
						<path id="SVGID_7_" d="M17.7,69.6l-0.6-0.1c0-0.3-0.1-0.6-0.2-0.9l0.5-0.3c0.1,0,0.1-0.1,0-0.2l-0.6-0.9c0-0.1-0.1-0.1-0.2,0
							l-0.5,0.3c-0.2-0.2-0.5-0.4-0.7-0.5l0.1-0.6c0-0.1,0-0.1-0.1-0.1l-1.1-0.2c-0.1,0-0.1,0-0.1,0.1l-0.1,0.6
							c-0.3,0-0.6,0.1-0.9,0.2L13,66.2c0-0.1-0.1-0.1-0.2,0l-0.9,0.6c-0.1,0-0.1,0.1,0,0.2l0.3,0.5c-0.2,0.2-0.4,0.5-0.5,0.7
							L11.1,68c-0.1,0-0.1,0-0.1,0.1l-0.2,1.1c0,0.1,0,0.1,0.1,0.1l0.6,0.1c0,0.3,0.1,0.6,0.2,0.9L11,70.7c-0.1,0-0.1,0.1,0,0.2
							l0.6,0.9c0,0.1,0.1,0.1,0.2,0l0.5-0.3c0.2,0.2,0.5,0.4,0.7,0.5l-0.1,0.6c0,0.1,0,0.1,0.1,0.1L14,73c0.1,0,0.1,0,0.1-0.1
							l0.1-0.6c0.3,0,0.6-0.1,0.9-0.2l0.3,0.5c0,0.1,0.1,0.1,0.2,0l0.9-0.6c0.1,0,0.1-0.1,0-0.2l-0.3-0.5c0.2-0.2,0.4-0.5,0.5-0.7
							l0.6,0.1c0.1,0,0.1,0,0.1-0.1l0.2-1.1C17.8,69.6,17.8,69.6,17.7,69.6z M14,70.5c-0.6-0.1-1-0.7-0.8-1.3s0.7-1,1.3-0.8
							c0.6,0.1,1,0.7,0.8,1.3C15.2,70.3,14.6,70.7,14,70.5z"/>
					</defs>
					<use xlink:href="#SVGID_7_"  overflow="visible" fill="#496F9A"/>
					<clipPath id="SVGID_8_">
						<use xlink:href="#SVGID_7_"  overflow="visible"/>
					</clipPath>

						<rect x="14.3" y="63.8" transform="matrix(-0.9964 -8.442654e-002 8.442654e-002 -0.9964 27.9288 139.9343)" clip-path="url(#SVGID_8_)" fill="#2C465F" width="5.3" height="11.1"/>
				</g>
			</g>
		</g>
	</g>
	<g>
		<g>
			<path fill="#3A5374" d="M144.5,61.5h-0.4c-0.6,0-1-0.5-1-1v-4.2c0-0.6,0.5-1,1-1h0.4c0.6,0,1,0.5,1,1v4.2
				C145.5,61,145,61.5,144.5,61.5z"/>
			<g>
				<path fill="#496F9A" d="M141,61.5h-0.4c-0.6,0-1-0.5-1-1v-2.7c0-0.6,0.5-1,1-1h0.4c0.6,0,1,0.5,1,1v2.7
					C142,61,141.6,61.5,141,61.5z"/>
				<path fill="#496F9A" d="M147.9,61.5h-0.4c-0.6,0-1-0.5-1-1v-7c0-0.6,0.5-1,1-1h0.4c0.6,0,1,0.5,1,1v7
					C149,61,148.5,61.5,147.9,61.5z"/>
			</g>
		</g>
		<path fill="#3A5374" d="M3.2,53.9l0.3,0.3l-2.1,2.1L1.1,56c-0.4-0.4-0.4-1,0-1.4l0.7-0.7C2.2,53.5,2.8,53.5,3.2,53.9L3.2,53.9z
			 M7.4,58.8c0.1,0.1,0.3,0.1,0.3,0c0.1-0.1,0.1-0.3,0-0.3l-3.8-3.8l-0.3,0.4L7.4,58.8z M5.6,60.5c0.1,0.1,0.3,0.1,0.3,0
			c0.1-0.1,0.1-0.3,0-0.3l-3.8-3.8l-0.3,0.3L5.6,60.5z M2.5,56l3.8,3.8C6.5,60,6.8,60,7,59.8c0.2-0.2,0.2-0.5,0-0.7l-3.8-3.8L2.5,56
			z M8.1,59.1c-0.1,0.1-0.3,0.2-0.4,0.2c0,0.1,0,0.1,0,0.2c0,0.3-0.1,0.5-0.3,0.7c-0.2,0.2-0.4,0.3-0.7,0.3c0,0-0.1,0-0.1,0
			c0,0.2-0.1,0.3-0.2,0.4c0,0,0,0,0,0l2.4,0.6L8.1,59.1C8.1,59.1,8.1,59.1,8.1,59.1L8.1,59.1z M8.1,59.1"/>
	</g>
	<g>
		<g>
			<path fill="#3A5374" d="M141.7,24.5l-4.2-0.8c0.1-0.1,0.1-0.2,0.1-0.3c0.1-0.3-0.2-0.7-0.5-0.7c-0.3-0.1-0.7,0.2-0.7,0.5
				c0,0.1,0,0.2,0,0.3l-4.2-0.8c-0.3-0.1-0.6,0.1-0.7,0.5l-1.2,6.2c-0.1,0.3,0.1,0.6,0.5,0.7l3.4,0.7l-1.1,2.2
				c-0.1,0.2,0,0.3,0.2,0.4l0.3,0.1c0.2,0.1,0.4,0,0.4-0.2l1.2-2.4l0.8,0.1l0.2,2.7c0,0.2,0.2,0.3,0.3,0.3l0.3,0
				c0.2,0,0.3-0.1,0.3-0.3l-0.2-2.5l3.4,0.7c0.3,0.1,0.6-0.1,0.7-0.5l1.2-6.2C142.2,24.8,142,24.5,141.7,24.5L141.7,24.5z M140,30.6
				l-8.5-1.6l1-5.3l8.5,1.6L140,30.6z M140,30.6"/>
			<path fill="#3A5374" d="M132.7,28.3c0.2,0,0.5-0.1,0.5-0.4c0,0,0-0.1,0-0.1c0.6-0.3,1.8-1,2.3-1.2c0.1,0.1,0.1,0.1,0.2,0.1
				c0.1,0,0.2,0,0.2,0c0.2,0.3,0.7,0.8,1,1.2c0,0,0,0,0,0.1c0,0.2,0.1,0.5,0.4,0.5s0.5-0.1,0.5-0.4c0,0,0-0.1,0-0.1l1.3-0.8
				c0.1,0,0.1,0.1,0.2,0.1c0.2,0,0.5-0.1,0.5-0.4c0-0.2-0.1-0.5-0.4-0.5c-0.2,0-0.5,0.1-0.5,0.4c0,0.1,0,0.1,0,0.2
				c-0.4,0.2-0.9,0.6-1.3,0.8c-0.1-0.1-0.1-0.1-0.2-0.1c-0.1,0-0.2,0-0.3,0c-0.2-0.3-0.6-0.8-0.9-1.1c0,0,0-0.1,0.1-0.1
				c0-0.2-0.1-0.5-0.4-0.5c-0.2,0-0.5,0.1-0.5,0.4c0,0.1,0,0.1,0,0.2l-2.3,1.2c-0.1-0.1-0.1-0.1-0.2-0.1c-0.2,0-0.5,0.1-0.5,0.4
				C132.3,28,132.4,28.3,132.7,28.3L132.7,28.3z M132.7,28.3"/>
		</g>
	</g>
	<g>
		<path fill="#3A5374" d="M16.2,20.8c0.3,0.7,0,1.4-0.7,1.7c-0.7,0.3-1.4,0-1.7-0.7c-0.3-0.7,0-1.4,0.7-1.7
			C15.2,19.8,16,20.2,16.2,20.8L16.2,20.8z M16.2,20.8"/>
		<path fill="#3A5374" d="M20.6,22.8l-1.2,0.2c-0.4,0.1-0.7,0.4-0.8,0.8c-0.2,0-0.5,0-0.7,0l-0.3-0.7c-0.2-0.5-0.8-0.7-1.3-0.5
			l-1.1,0.5c-0.5,0.2-0.7,0.8-0.5,1.3l0.3,0.7c-0.2,0.2-0.4,0.3-0.5,0.5c-0.3-0.2-0.8-0.2-1.1,0l-1,0.7c-0.4,0.3-0.6,0.9-0.3,1.4
			l0.8,1.2c0.3,0.4,0.9,0.6,1.4,0.3l0.3-0.2c0.3,0.2,0.6,0.3,1,0.4c0.8,0.2,1.8,0,2.7-0.4c1.4-0.6,2.3-1.6,2.6-2.7l0.4-0.1
			c0.5-0.1,0.9-0.6,0.8-1.1l-0.3-1.4C21.6,23.1,21.1,22.7,20.6,22.8L20.6,22.8z M18.1,28.5c-0.8,0.3-1.7,0.5-2.4,0.3
			c-0.2,0-0.5-0.1-0.7-0.2l0.2-0.2c0.4-0.3,0.6-0.9,0.3-1.4L14.8,26c0.1-0.1,0.2-0.3,0.4-0.4l0.1,0.2c0.2,0.5,0.8,0.7,1.3,0.5
			l1.1-0.5c0.5-0.2,0.7-0.8,0.5-1.3l-0.1-0.2c0.2,0,0.4,0,0.5,0l0.3,1.3c0.1,0.5,0.6,0.9,1.1,0.8l0.3-0.1
			C20.1,27.2,19.2,28,18.1,28.5L18.1,28.5z M18.1,28.5"/>
		<g>
			<defs>

					<rect id="SVGID_9_" x="11" y="19.7" transform="matrix(-0.9224 0.3862 -0.3862 -0.9224 41.4523 41.0725)" width="11.2" height="10"/>
			</defs>
			<clipPath id="SVGID_10_">
				<use xlink:href="#SVGID_9_"  overflow="visible"/>
			</clipPath>
			<path clip-path="url(#SVGID_10_)" fill="#3A5374" d="M20.8,20.7c0.3,0.7,0,1.4-0.7,1.7c-0.7,0.3-1.4,0-1.7-0.7
				c-0.3-0.7,0-1.4,0.7-1.7C19.8,19.8,20.5,20.1,20.8,20.7L20.8,20.7z M20.8,20.7"/>
			<path clip-path="url(#SVGID_10_)" fill="#3A5374" d="M12.6,25.5c0.6-0.4,0.7-1.2,0.3-1.8c-0.4-0.6-1.2-0.7-1.8-0.3
				c-0.6,0.4-0.7,1.2-0.3,1.8C11.2,25.8,12,25.9,12.6,25.5L12.6,25.5z M12.6,25.5"/>
		</g>
	</g>
</g>
</svg>
