<?xml version="1.0" encoding="UTF-8" standalone="no"?>
<svg xmlns="http://www.w3.org/2000/svg" height="361px" width="256px" version="1.1" preserveAspectRatio="xMidYMid" xmlns:xlink="http://www.w3.org/1999/xlink" viewBox="0 0 256 135">
 <defs>
	<radialGradient id="radialGradient-1" gradientUnits="userSpaceOnUse" cy="-125.81" cx=".8366" gradientTransform="matrix(.463 0 0 .463 76.464 81.918)" r="363.06">
	<stop stop-color="#fff" offset="0"/>
	<stop stop-color="#4C6B97" offset=".5"/>
	<stop stop-color="#231F20" offset="1"/>
	</radialGradient>
 </defs>
 <ellipse cy="67.3" cx="128" rx="128" ry="67.3" fill="url(#radialGradient-1)"/>
 <ellipse cy="67.3" cx="128" rx="123" ry="62.3" fill="#6181B6"/>
 <g fill="#fff">
	<path d="m152.9 87.5l6.1-31.4c1.4-7.1 0.2-12.4-3.4-15.7-3.5-3.2-9.5-4.8-18.3-4.8h-10.6l3-15.6c0.1-0.6 0-1.2-0.4-1.7s-0.9-0.7-1.5-0.7h-14.6c-1 0-1.8 0.7-2 1.6l-6.5 33.3c-0.6-3.8-2-7-4.4-9.6-4.3-4.9-11-7.4-20.1-7.4h-28.1c-1 0-1.8 0.7-2 1.6l-13.1 67.6c-0.1 0.6 0 1.2 0.4 1.7s0.9 0.7 1.5 0.7h14.7c1 0 1.8-0.7 2-1.6l3.2-16.3h10.9c5.7 0 10.6-0.6 14.3-1.8 3.9-1.3 7.4-3.4 10.5-6.3 2.5-2.3 4.6-4.9 6.2-7.7l-2.6 13.5c-0.1 0.6 0 1.2 0.4 1.7s0.9 0.7 1.5 0.7h14.6c1 0 1.8-0.7 2-1.6l7.2-37h10c4.3 0 5.5 0.8 5.9 1.2 0.3 0.3 0.9 1.5 0.2 5.2l-5.8 29.9c-0.1 0.6 0 1.2 0.4 1.7s0.9 0.7 1.5 0.7h15c0.9-0.3 1.7-1 1.9-1.9zm-67.6-26c-0.9 4.7-2.6 8.1-5.1 10s-6.6 2.9-12 2.9h-6.5l4.7-24.2h8.4c6.2 0 8.7 1.3 9.7 2.4 1.3 1.6 1.6 4.7 0.8 8.9z"/>
	<path d="m215.3 42.9c-4.3-4.9-11-7.4-20.1-7.4h-28.3c-1 0-1.8 0.7-2 1.6l-13.1 67.5c-0.1 0.6 0 1.2 0.4 1.7s0.9 0.7 1.5 0.7h14.7c1 0 1.8-0.7 2-1.6l3.2-16.3h10.9c5.7 0 10.6-0.6 14.3-1.8 3.9-1.3 7.4-3.4 10.5-6.3 2.6-2.4 4.8-5.1 6.4-8s2.8-6.1 3.5-9.6c1.7-8.7 0.4-15.5-3.9-20.5zm-15.3 18.6c-0.9 4.7-2.6 8.1-5.1 10s-6.6 2.9-12 2.9h-6.5l4.7-24.2h8.4c6.2 0 8.7 1.3 9.7 2.4 1.4 1.6 1.7 4.7 0.8 8.9z"/>
 </g>
 <g fill="#000004">
	<path d="m74.8 48.2c5.6 0 9.3 1 11.2 3.1s2.3 5.6 1.3 10.6c-1 5.2-3 9-5.9 11.2s-7.3 3.3-13.2 3.3h-8.9l5.5-28.2h10zm-35.8 56.8h14.7l3.5-17.9h12.6c5.6 0 10.1-0.6 13.7-1.8s6.8-3.1 9.8-5.9c2.5-2.3 4.5-4.8 6-7.5s2.6-5.7 3.2-9c1.6-8 0.4-14.2-3.5-18.7s-10.1-6.7-18.6-6.7h-28.3l-13.1 67.5z"/>
	<path d="m113.3 19.6h14.6l-3.5 17.9h13c8.2 0 13.8 1.4 16.9 4.3s4 7.5 2.8 13.9l-6.1 31.4h-14.8l5.8-29.9c0.7-3.4 0.4-5.7-0.7-6.9s-3.6-1.9-7.3-1.9h-11.7l-7.5 38.7h-14.6l13.1-67.5z"/>
	<path d="m189.5 48.2c5.6 0 9.3 1 11.2 3.1s2.3 5.6 1.3 10.6c-1 5.2-3 9-5.9 11.2s-7.3 3.3-13.2 3.3h-8.9l5.5-28.2h10zm-35.8 56.8h14.7l3.5-17.9h12.6c5.6 0 10.1-0.6 13.7-1.8s6.8-3.1 9.8-5.9c2.5-2.3 4.5-4.8 6-7.5s2.6-5.7 3.2-9c1.6-8 0.4-14.2-3.5-18.7s-10.1-6.7-18.6-6.7h-28.3l-13.1 67.5z"/>
 </g>
</svg>
