<?xml version="1.0" encoding="utf-8"?>
<!DOCTYPE svg PUBLIC "-//W3C//DTD SVG 1.1//EN" "http://www.w3.org/Graphics/SVG/1.1/DTD/svg11.dtd">
<svg version="1.1" id="Camada_1" xmlns="http://www.w3.org/2000/svg" xmlns:xlink="http://www.w3.org/1999/xlink" x="0px" y="0px"
	 viewBox="0 0 150 150" enable-background="new 0 0 150 150" xml:space="preserve" width="150px" height="150px">
<g>
	<g>
		<path fill-rule="evenodd" clip-rule="evenodd" fill="#4E5151" d="M61.9,106.2h26.3c0.5,0,0.9,0.2,1.2,0.6l10.5,13
			c0.8,1,0.1,2.5-1.2,2.5H51.4c-1.3,0-2-1.5-1.2-2.5l10.5-13C61,106.4,61.4,106.2,61.9,106.2z"/>
		<path fill-rule="evenodd" clip-rule="evenodd" fill="#1D2120" d="M9.7,27.8h130.6c3.7,0,6.7,3,6.7,6.7v71.1c0,3.7-3,6.7-6.7,6.7
			H9.7c-3.7,0-6.7-3-6.7-6.7V34.4C3,30.8,6,27.8,9.7,27.8z"/>
		<rect x="7.4" y="31.7" fill-rule="evenodd" clip-rule="evenodd" fill="#244C5E" width="135.1" height="68.6"/>
		<circle fill-rule="evenodd" clip-rule="evenodd" fill="#808281" cx="138.9" cy="106.3" r="0.9"/>
		<circle fill-rule="evenodd" clip-rule="evenodd" fill="#808281" cx="135.5" cy="106.3" r="0.9"/>
		<circle fill-rule="evenodd" clip-rule="evenodd" fill="#808281" cx="132.1" cy="106.3" r="0.9"/>
	</g>
	<polygon fill-rule="evenodd" clip-rule="evenodd" fill="#2E586B" points="47.3,31.7 73,31.7 142.6,65.7 142.6,100.3 47.6,100.3
		37,31.7 	"/>
	<g>
		<path fill="#E2E2E2" d="M63,55.4c0.4,0.1,0.4,0.3,0,0.6c-0.4,0.3-1,0.4-1.4,0.4c-1.3-0.2-2.8-0.6-4.4-1c-1.5-0.4-2.9-0.8-4.2-1
			c-0.4-0.1-0.4-0.3,0-0.6c0.4-0.3,1-0.4,1.4-0.4c1.3,0.2,2.8,0.6,4.4,1C60.3,54.8,61.7,55.2,63,55.4z"/>
		<path fill="#E2E2E2" d="M62,60.7c0.4,0,0.5,0.2,0.1,0.6c-0.3,0.4-0.9,0.7-1.3,0.7c-1.3,0.1-2.9,0.1-4.5,0.1c-1.5,0-3,0-4.3,0.1
			c-0.4,0-0.4-0.2-0.1-0.6c0.3-0.4,0.9-0.7,1.3-0.7c1.3-0.1,2.9-0.1,4.5-0.1C59.2,60.9,60.7,60.9,62,60.7z"/>
		<g>
			<g>
				<path fill="#FBB217" d="M72.2,69.4c0,0.4-0.3,0.9-0.8,1.2c-0.4,0.3-0.8,0.2-0.8-0.2c0-1.2-0.8-2.2-1.8-3.3
					c-1.4-1.7-3.1-3.6-3.2-7.3c-0.1-3.5,2.2-6,5.2-7.1c1.1-0.4,2.3-0.6,3.4-0.6c1.1,0,2.3,0.2,3.3,0.6c2.3,1,4,3.1,3.9,6.6
					c-0.1,4.1-1.9,6-3.4,7.6c-0.7,0.8-1.4,1.5-1.4,2.5c0,0.4-0.3,0.9-0.8,1.2c-0.4,0.3-0.8,0.2-0.8-0.2c0-1.9,1-3,2.2-4.4
					c1.1-1.2,2.4-2.6,2.5-5.8c0.1-3.1-1.4-5-3.5-5.8c-0.9-0.4-1.9-0.6-3-0.6c-1,0-2,0.2-2.9,0.5c-1.9,0.7-3.3,2.3-3.2,4.5
					c0.1,3.4,1.7,5.2,3,6.8C71.3,66.8,72.2,67.9,72.2,69.4z"/>
				<path fill="#76CABB" d="M69.6,72.5c-0.2-0.1-0.1-0.5,0.1-0.8c0.2-0.3,0.6-0.5,0.8-0.4c0.7,0.5,1.9,0.9,3.3,1.3
					c1.2,0.3,2.4,0.5,3.6,0.5c0.2,0,0.3,0.3,0.1,0.6c-0.2,0.3-0.5,0.6-0.7,0.6c-1.2,0-2.6-0.2-3.7-0.5C71.6,73.5,70.4,73,69.6,72.5z
					"/>
				<path fill="#76CABB" d="M70.2,74.9c-0.2-0.1-0.1-0.5,0.1-0.8c0.2-0.3,0.6-0.5,0.8-0.4c0.6,0.4,1.6,0.8,2.7,1c1,0.2,2,0.4,3,0.4
					c0.2,0,0.3,0.3,0.1,0.6c-0.2,0.3-0.5,0.6-0.7,0.6c-1,0-2.1-0.2-3.1-0.4C71.9,75.7,70.8,75.3,70.2,74.9z"/>
				<path fill="#76CABB" d="M70.9,77.7c-0.2-0.1-0.2-0.4,0.1-0.8c0.2-0.3,0.6-0.5,0.8-0.4c0.5,0.3,1.3,0.5,2.1,0.6
					c0.7,0.1,1.5,0.1,2.2-0.1c0.3-0.1,0.4,0.2,0.3,0.5c-0.1,0.3-0.4,0.6-0.7,0.7c-0.8,0.2-1.6,0.2-2.4,0.1
					C72.3,78.2,71.4,78,70.9,77.7z"/>
			</g>
			<path fill="#E2E2E2" d="M83.6,56.2c-0.3,0.2-0.4,0-0.3-0.4c0.1-0.4,0.5-0.9,0.8-1c1.1-0.5,2.3-1.1,3.6-1.6c1.2-0.5,2.5-1,3.5-1.5
				c0.3-0.2,0.4,0,0.3,0.4c-0.1,0.4-0.5,0.9-0.8,1c-1.1,0.5-2.3,1.1-3.6,1.6C85.9,55.1,84.7,55.6,83.6,56.2z"/>
			<path fill="#E2E2E2" d="M83.7,62.3c-0.3,0.1-0.3-0.2-0.1-0.6c0.2-0.4,0.6-0.8,0.9-0.8c1.2-0.2,2.5-0.3,3.9-0.5l0,0
				c1.4-0.1,2.7-0.2,3.8-0.5c0.3-0.1,0.3,0.2,0.1,0.6c-0.2,0.4-0.6,0.8-0.9,0.8c-1.2,0.2-2.5,0.3-3.9,0.5l0,0l0,0
				C86.2,61.9,84.9,62.1,83.7,62.3z"/>
			<path fill="#E2E2E2" d="M82,67c-0.2,0-0.2-0.3,0.1-0.5c0.3-0.2,0.7-0.4,0.9-0.4c0.9,0.2,2,0.5,3.1,0.8l0,0c1,0.3,2.1,0.6,3,0.7
				c0.2,0,0.2,0.3-0.1,0.5c-0.3,0.2-0.7,0.4-0.9,0.4c-0.9-0.2-2-0.5-3.1-0.8l0,0l0,0C84,67.4,83,67.1,82,67z"/>
			<path fill="#E2E2E2" d="M81.5,51.8c-0.2,0.3-0.4,0.2-0.5-0.3c-0.1-0.4,0-1,0.2-1.3c0.7-1,1.6-2,2.5-3.1c0.9-1,1.7-2,2.4-3
				c0.2-0.3,0.4-0.2,0.5,0.3c0.1,0.4,0,1-0.2,1.3c-0.7,1-1.6,2-2.5,3.1C83,49.8,82.2,50.9,81.5,51.8z"/>
			<path fill="#E2E2E2" d="M76.3,50c-0.1,0.3-0.3,0.3-0.5-0.1c-0.2-0.4-0.3-0.9-0.2-1.3c0.3-1.2,0.7-2.5,1.2-3.8
				c0.4-1.3,0.9-2.5,1.1-3.7c0.1-0.3,0.3-0.3,0.5,0.1c0.2,0.4,0.3,0.9,0.2,1.3c-0.3,1.2-0.7,2.5-1.2,3.8C77,47.6,76.6,48.9,76.3,50z
				"/>
			<path fill="#E2E2E2" d="M70.7,50.4c0.1,0.3-0.2,0.4-0.5,0.2c-0.4-0.2-0.7-0.7-0.8-1c-0.3-1.2-0.4-2.5-0.6-3.9
				c-0.2-1.3-0.3-2.7-0.6-3.8c-0.1-0.3,0.2-0.4,0.5-0.2c0.4,0.2,0.7,0.7,0.8,1c0.3,1.2,0.4,2.5,0.6,3.9
				C70.3,47.9,70.5,49.2,70.7,50.4z"/>
			<path fill="#E2E2E2" d="M65.7,52c0.2,0.3,0.1,0.4-0.4,0.4c-0.4,0-1-0.3-1.2-0.6c-0.8-0.9-1.6-2-2.4-3.2c-0.8-1.1-1.5-2.2-2.3-3.1
				c-0.2-0.3-0.1-0.4,0.4-0.4c0.4,0,1,0.3,1.2,0.6c0.8,0.9,1.6,2,2.4,3.2C64.1,50,64.9,51.1,65.7,52z"/>
			<path fill="#E2E2E2" d="M64.6,67.2c0.3-0.1,0.4,0.1,0.2,0.4c-0.2,0.3-0.6,0.7-0.9,0.7c-1,0.3-2.3,0.5-3.5,0.7
				c-1.2,0.2-2.4,0.4-3.4,0.7c-0.3,0.1-0.4-0.1-0.2-0.4c0.2-0.3,0.6-0.7,0.9-0.7c1-0.3,2.3-0.5,3.5-0.7
				C62.4,67.7,63.6,67.5,64.6,67.2z"/>
		</g>
	</g>
</g>
</svg>
