<?xml version="1.0" encoding="UTF-8" standalone="no"?>
<svg xmlns="http://www.w3.org/2000/svg" height="361px" width="256px" version="1.1" preserveAspectRatio="xMidYMid" xmlns:xlink="http://www.w3.org/1999/xlink" viewBox="0 0 256 255">
 <defs>
	<linearGradient id="linearGradient-1" y1="12.039%" x2="79.639%" x1="12.959%" y2="78.201%">
	<stop stop-color="#387EB8" offset="0"/>
	<stop stop-color="#366994" offset="1"/>
	</linearGradient>
	<linearGradient id="linearGradient-2" y1="20.579%" x2="90.742%" x1="19.128%" y2="88.429%">
	<stop stop-color="#FFE052" offset="0"/>
	<stop stop-color="#FFC331" offset="1"/>
	</linearGradient>
 </defs>
 <path d="m126.92 0.072276c-64.836 0.000004-60.788 28.115-60.788 28.115l0.072 29.128h61.866v8.745h-86.439s-41.486-4.705-41.486 60.71c-0.00045 65.42 36.21 63.1 36.21 63.1h21.61v-30.36s-1.165-36.21 35.632-36.21h61.363s34.47 0.56 34.47-33.317v-56.013s5.24-33.898-62.51-33.898v0.000276zm-34.118 19.587c6.155 0 11.128 4.975 11.128 11.13 0 6.156-4.973 11.131-11.128 11.131-6.156 0-11.131-4.975-11.131-11.131 0-6.155 4.975-11.13 11.131-11.13z" fill="url(#linearGradient-1)"/>
 <path d="m128.76 254.13c64.83 0 60.78-28.12 60.78-28.12l-0.07-29.13h-61.87v-8.74h86.44s41.49 4.7 41.49-60.71c0-65.419-36.21-63.099-36.21-63.099h-21.61v30.355s1.16 36.214-35.63 36.214h-61.37s-34.471-0.56-34.471 33.32v56.01s-5.235 33.9 62.521 33.9zm34.11-19.59c-6.15 0-11.13-4.98-11.13-11.13 0-6.16 4.98-11.13 11.13-11.13 6.16 0 11.13 4.97 11.13 11.13 0 6.15-4.97 11.13-11.13 11.13z" fill="url(#linearGradient-2)"/>
</svg>
